<svg width="1200" height="760" viewBox="0 0 1200 760" fill="none" xmlns="http://www.w3.org/2000/svg">
  <rect width="1200" height="760" rx="54" fill="#0F172A"/>
  <rect x="70" y="80" width="1060" height="600" rx="42" fill="#FEF3C7"/>
  <rect x="120" y="130" width="960" height="86" rx="28" fill="#111827"/>
  <circle cx="170" cy="173" r="18" fill="#F59E0B"/>
  <rect x="218" y="161" width="180" height="24" rx="12" fill="#F8FAFC"/>
  <rect x="720" y="158" width="102" height="28" rx="14" fill="#F59E0B"/>
  <rect x="842" y="158" width="102" height="28" rx="14" fill="#8B5CF6"/>
  <rect x="120" y="260" width="294" height="170" rx="34" fill="#FFFFFF" stroke="#F59E0B" stroke-width="4"/>
  <rect x="454" y="260" width="294" height="170" rx="34" fill="#FFFFFF" stroke="#8B5CF6" stroke-width="4"/>
  <rect x="788" y="260" width="294" height="170" rx="34" fill="#FFFFFF" stroke="#10B981" stroke-width="4"/>
  <rect x="156" y="308" width="170" height="20" rx="10" fill="#111827"/>
  <rect x="156" y="352" width="212" height="14" rx="7" fill="#94A3B8"/>
  <rect x="490" y="308" width="170" height="20" rx="10" fill="#111827"/>
  <rect x="490" y="352" width="212" height="14" rx="7" fill="#94A3B8"/>
  <rect x="824" y="308" width="170" height="20" rx="10" fill="#111827"/>
  <rect x="824" y="352" width="212" height="14" rx="7" fill="#94A3B8"/>
  <rect x="120" y="474" width="960" height="132" rx="34" fill="#111827"/>
  <rect x="156" y="520" width="240" height="24" rx="12" fill="#F59E0B"/>
  <rect x="156" y="565" width="790" height="15" rx="7.5" fill="#CBD5E1"/>
</svg>
