<svg width="1200" height="760" viewBox="0 0 1200 760" fill="none" xmlns="http://www.w3.org/2000/svg">
  <rect width="1200" height="760" rx="54" fill="#0B1020"/>
  <rect x="100" y="118" width="1000" height="524" rx="40" fill="#111827" stroke="#334155" stroke-width="2"/>
  <rect x="160" y="178" width="260" height="126" rx="28" fill="#F59E0B"/>
  <rect x="470" y="178" width="260" height="126" rx="28" fill="#8B5CF6"/>
  <rect x="780" y="178" width="260" height="126" rx="28" fill="#10B981"/>
  <rect x="160" y="380" width="260" height="126" rx="28" fill="#1E293B" stroke="#64748B"/>
  <rect x="470" y="380" width="260" height="126" rx="28" fill="#1E293B" stroke="#64748B"/>
  <rect x="780" y="380" width="260" height="126" rx="28" fill="#1E293B" stroke="#64748B"/>
  <path d="M290 304V380" stroke="#E5E7EB" stroke-width="10" stroke-linecap="round"/>
  <path d="M600 304V380" stroke="#E5E7EB" stroke-width="10" stroke-linecap="round"/>
  <path d="M910 304V380" stroke="#E5E7EB" stroke-width="10" stroke-linecap="round"/>
  <text x="290" y="252" text-anchor="middle" fill="#111827" font-family="Arial" font-weight="800" font-size="40">NGINX</text>
  <text x="600" y="252" text-anchor="middle" fill="#FFFFFF" font-family="Arial" font-weight="800" font-size="40">APP</text>
  <text x="910" y="252" text-anchor="middle" fill="#062E1A" font-family="Arial" font-weight="800" font-size="40">SSL</text>
  <text x="290" y="456" text-anchor="middle" fill="#E5E7EB" font-family="Arial" font-weight="800" font-size="34">GUNICORN</text>
  <text x="600" y="456" text-anchor="middle" fill="#E5E7EB" font-family="Arial" font-weight="800" font-size="34">PHP-FPM</text>
  <text x="910" y="456" text-anchor="middle" fill="#E5E7EB" font-family="Arial" font-weight="800" font-size="34">LOGS</text>
</svg>
