<svg width="1200" height="760" viewBox="0 0 1200 760" fill="none" xmlns="http://www.w3.org/2000/svg">
  <rect width="1200" height="760" rx="54" fill="#312E81"/>
  <rect x="120" y="70" width="410" height="620" rx="36" fill="#FFFFFF"/>
  <rect x="170" y="128" width="180" height="28" rx="14" fill="#312E81"/>
  <rect x="170" y="192" width="292" height="16" rx="8" fill="#94A3B8"/>
  <rect x="170" y="232" width="240" height="16" rx="8" fill="#94A3B8"/>
  <rect x="170" y="308" width="310" height="160" rx="24" fill="#FEF3C7"/>
  <rect x="170" y="520" width="292" height="18" rx="9" fill="#312E81"/>
  <rect x="170" y="564" width="220" height="14" rx="7" fill="#94A3B8"/>
  <rect x="580" y="110" width="500" height="540" rx="42" fill="#111827"/>
  <rect x="632" y="170" width="230" height="26" rx="13" fill="#F59E0B"/>
  <rect x="632" y="240" width="360" height="20" rx="10" fill="#E5E7EB"/>
  <rect x="632" y="294" width="240" height="20" rx="10" fill="#E5E7EB"/>
  <rect x="632" y="360" width="390" height="120" rx="24" fill="#312E81"/>
  <rect x="632" y="534" width="180" height="28" rx="14" fill="#F59E0B"/>
</svg>
