<svg width="1200" height="760" viewBox="0 0 1200 760" fill="none" xmlns="http://www.w3.org/2000/svg">
  <rect width="1200" height="760" rx="54" fill="#111827"/>
  <rect x="54" y="54" width="1092" height="652" rx="36" fill="#F8FAFC"/>
  <rect x="96" y="104" width="260" height="552" rx="28" fill="#111827"/>
  <rect x="130" y="148" width="168" height="22" rx="11" fill="#F59E0B"/>
  <rect x="130" y="214" width="186" height="16" rx="8" fill="#94A3B8"/>
  <rect x="130" y="258" width="130" height="16" rx="8" fill="#94A3B8"/>
  <rect x="130" y="302" width="170" height="16" rx="8" fill="#94A3B8"/>
  <rect x="402" y="104" width="704" height="124" rx="30" fill="#EEF2FF"/>
  <rect x="438" y="140" width="240" height="22" rx="11" fill="#111827"/>
  <rect x="438" y="180" width="530" height="16" rx="8" fill="#94A3B8"/>
  <g>
    <rect x="402" y="266" width="212" height="184" rx="28" fill="#FFFFFF" stroke="#CBD5E1"/>
    <circle cx="452" cy="326" r="30" fill="#F59E0B"/>
    <rect x="438" y="386" width="130" height="16" rx="8" fill="#111827"/>
    <rect x="438" y="416" width="92" height="12" rx="6" fill="#94A3B8"/>
  </g>
  <g>
    <rect x="650" y="266" width="212" height="184" rx="28" fill="#FFFFFF" stroke="#CBD5E1"/>
    <circle cx="700" cy="326" r="30" fill="#8B5CF6"/>
    <rect x="686" y="386" width="130" height="16" rx="8" fill="#111827"/>
    <rect x="686" y="416" width="92" height="12" rx="6" fill="#94A3B8"/>
  </g>
  <g>
    <rect x="894" y="266" width="212" height="184" rx="28" fill="#FFFFFF" stroke="#CBD5E1"/>
    <circle cx="944" cy="326" r="30" fill="#10B981"/>
    <rect x="930" y="386" width="130" height="16" rx="8" fill="#111827"/>
    <rect x="930" y="416" width="92" height="12" rx="6" fill="#94A3B8"/>
  </g>
  <rect x="402" y="492" width="704" height="164" rx="30" fill="#111827"/>
  <rect x="438" y="532" width="220" height="18" rx="9" fill="#F59E0B"/>
  <rect x="438" y="574" width="588" height="14" rx="7" fill="#CBD5E1"/>
  <rect x="438" y="608" width="460" height="14" rx="7" fill="#CBD5E1"/>
</svg>
